<svg width="100" height="100" viewBox="0 0 100 100" fill="none" xmlns="http://www.w3.org/2000/svg">
<path d="M43.5 61.16C39.11 61.16 36.92 61.85 36.92 63.22C36.92 64.43 38.86 65.16 42.73 65.42H49.83C58.44 65.42 62.74 64.69 62.74 63.22C62.74 61.85 60.55 61.16 56.16 61.16H43.5ZM43.5 53.15C39.72 53.15 37.61 53.58 37.18 54.45C37.01 54.62 36.92 54.88 36.92 55.22C36.92 56.17 37.82 56.73 39.63 56.9C41.87 57.16 45.27 57.29 49.83 57.29C54.39 57.29 57.83 57.16 60.16 56.9C61.88 56.73 62.74 56.17 62.74 55.22C62.74 53.84 60.55 53.15 56.16 53.15H43.5ZM67.52 58.71L70.1 68.65C70.1 71.66 67.04 73.42 60.93 73.94C65.41 75.66 69.58 76.52 73.46 76.52C73.97 76.52 76.51 76.39 81.07 76.13C84.86 76.13 87.96 78.11 90.37 82.07C90.71 82.76 91.14 83.54 91.66 84.4L87.01 91.5C85.63 93.22 84.17 94.34 82.62 94.85C82.28 93.05 79.52 91.93 74.36 91.5L71.26 91.24C60.67 90.38 53.53 88.1 49.83 84.4C46.47 87.93 41.35 89.95 34.47 90.46C32.92 90.64 30.9 90.89 28.4 91.24C22.12 91.76 18.46 92.66 17.43 93.95C17.25 94.21 17.12 94.51 17.04 94.85C14.8 93.91 12.69 91.76 10.71 88.4C9.93996 87.02 9.03 85.69 8 84.4C10.33 80.09 12.82 77.51 15.49 76.65C16.44 76.31 17.47 76.13 18.59 76.13C18.59 76.13 21.13 76.26 26.2 76.52C30.16 76.52 34.34 75.66 38.73 73.94C32.62 73.42 29.56 71.66 29.56 68.65C29.56 68.39 30.25 66.19 31.63 62.06C32.06 60.69 32.27 59.74 32.27 59.22C27.02 52.85 24.4 47.22 24.4 42.31C24.4 36.63 27.19 31.466 32.79 26.818C37.78 22.601 41.4 20.363 43.63 20.105C41.74 17.781 40.79 15.371 40.79 12.875C40.79 8.83 42.82 6.334 46.86 5.387C47.81 5.129 48.8 5 49.83 5C54.13 5 56.93 6.592 58.22 9.777L58.87 12.488V12.875C58.87 15.285 57.92 17.695 56.03 20.105C57.66 20.535 60.11 21.869 63.39 24.107C71.3 29.615 75.26 35.68 75.26 42.31C75.26 47.3 72.68 52.77 67.52 58.71ZM52.15 46.7V40.76H56.67V35.85H52.15V30.304H47.51V35.85H42.99V40.76H47.51V46.7H52.15ZM49.83 10.293C48.11 10.293 47.03 11.068 46.6 12.617L46.47 13.392C46.47 15.027 47.33 16.06 49.06 16.49C49.31 16.576 49.57 16.619 49.83 16.619C51.98 16.619 53.06 15.543 53.06 13.392C53.06 11.326 51.98 10.293 49.83 10.293Z" fill="black"/>
</svg>
