<svg width="100" height="100" viewBox="0 0 100 100" fill="none" xmlns="http://www.w3.org/2000/svg">
<path d="M50.121 92.95C32.991 92.95 24.298 90.07 24.04 84.3C23.609 76.38 22.275 70.4 20.037 66.36C19.091 64.72 17.757 62.74 16.035 60.42C13.109 56.54 11.474 53.27 11.13 50.6C11.044 49.92 11 49.18 11 48.41C11 42.99 13.281 38.73 17.843 35.63C18.962 34.94 20.124 34.38 21.328 33.95C25.89 32.32 30.408 32.57 34.884 34.73C36.519 35.5 38.154 36.53 39.79 37.82L39.919 37.95C39.919 36.15 40.005 34.21 40.177 32.14C40.177 31.54 40.481 30.72 41.081 29.69C42.461 27.45 44.091 25.69 45.991 24.4C46.331 24.23 46.671 24.01 47.021 23.75V20.65L41.731 17.56V12.91H46.501L48.181 8H52.051L53.731 12.91H58.511V17.56L53.221 20.65V23.75C57.691 26.59 59.971 29.43 60.061 32.27C60.231 33.99 60.321 35.89 60.321 37.95L60.441 37.82C65.871 33.26 71.551 31.8 77.491 33.43C79.041 33.86 80.501 34.51 81.881 35.37C86.701 38.3 89.151 42.64 89.231 48.41C89.231 51.85 87.511 55.94 84.071 60.67C81.231 64.63 79.471 67.52 78.781 69.32C77.311 73.2 76.451 78.19 76.191 84.3C76.021 90.07 67.331 92.95 50.121 92.95ZM50.121 49.44L53.861 43.5C54.461 42.21 54.941 41.01 55.281 39.89C55.451 39.29 55.541 38.04 55.541 36.15C55.541 31.07 53.771 28.53 50.251 28.53C46.541 28.53 44.691 31.07 44.691 36.15C44.691 38.04 44.781 39.29 44.951 39.89C45.641 42.21 47.101 44.97 49.341 48.15C49.861 48.75 50.121 49.18 50.121 49.44ZM84.591 49.18C84.591 45.31 83.301 42.34 80.711 40.28C78.561 38.47 76.021 37.57 73.101 37.57C69.401 37.57 65.391 39.46 61.091 43.25C56.011 47.64 53.131 53.57 52.441 61.06C52.441 61.66 54.031 62.35 57.221 63.13C60.921 63.82 67.201 64.16 76.071 64.16L81.881 56.41C83.681 53.66 84.591 51.25 84.591 49.18ZM50.121 66.61C47.971 67.56 41.421 68.38 30.495 69.07C28.859 69.15 27.525 69.24 26.492 69.32C27.353 72.59 27.913 76.21 28.171 80.17C34.109 78.28 41.421 77.33 50.121 77.33C58.981 77.33 66.301 78.28 72.061 80.17C72.321 75.87 72.881 72.25 73.741 69.32L54.641 67.78C53.001 67.52 51.491 67.13 50.121 66.61ZM15.648 49.18C15.648 51.85 17.757 55.9 21.974 61.32C23.007 62.61 23.738 63.56 24.169 64.16H26.492C35.357 64.16 41.811 63.56 45.861 62.35C47.151 62.01 47.791 61.58 47.791 61.06C47.101 53.57 44.221 47.64 39.144 43.25C34.927 39.46 30.925 37.57 27.138 37.57C25.933 37.57 24.642 37.82 23.265 38.34C19.822 39.2 17.499 41.48 16.294 45.18L15.648 48.67V49.18ZM50.121 88.3C58.211 88.3 63.801 87.79 66.901 86.75C67.671 86.49 68.061 86.19 68.061 85.85C68.061 83.61 62.121 82.49 50.251 82.49C45.681 82.49 41.251 82.79 36.95 83.4C33.765 83.91 32.173 84.73 32.173 85.85C32.173 87.14 37.251 87.96 47.411 88.3H50.121Z" fill="black"/>
</svg>
