<svg width="100" height="100" viewBox="0 0 100 100" fill="none" xmlns="http://www.w3.org/2000/svg">
<path d="M28.82 42.079C30.97 42.079 33.25 40.829 35.66 38.339C36.95 37.049 37.6 35.929 37.6 34.979C37.6 33.859 36.56 33.299 34.5 33.299C32.09 33.299 30.06 34.379 28.43 36.529C27.57 37.559 27.14 38.639 27.14 39.759C27.14 41.309 27.7 42.079 28.82 42.079ZM26.62 13.807C26.79 13.807 27.22 13.764 27.91 13.678C31.79 13.678 35.92 14.969 40.31 17.551C40.82 17.895 41.08 18.067 41.08 18.067C43.58 14.022 45.47 12 46.76 12C49.52 13.549 51.32 15.227 52.18 17.035C52.61 17.895 53.26 19.703 54.12 22.457C54.81 22.285 55.5 22.199 56.19 22.199C63.42 22.199 70.3 26.631 76.84 35.499C84.67 45.739 88.59 59.679 88.59 77.329C88.59 81.279 88.42 84.859 88.07 88.039H33.59C33.77 82.269 35.87 76.809 39.92 71.639C40.35 70.959 40.95 70.179 41.73 69.319C44.91 65.279 46.85 62.179 47.54 60.029C47.88 58.909 48.14 57.749 48.31 56.539C42.63 58.779 38.37 62.089 35.53 66.479C34.24 68.629 32.82 70.869 31.27 73.189C30.84 73.879 30.19 74.229 29.33 74.229C27.18 74.229 26.11 72.889 26.11 70.219C25.24 71.339 24.25 71.899 23.14 71.899C23.14 71.899 22.28 71.689 20.55 71.259C16.85 70.309 14.23 68.679 12.68 66.349C12.16 65.579 11.6 64.539 11 63.249C11.6 59.549 14.57 52.189 19.91 41.179C23.78 33.259 26.19 27.578 27.14 24.135C27.22 23.361 27.27 22.242 27.27 20.779C27.27 19.574 27.05 17.25 26.62 13.807ZM18.88 59.119C16.81 59.119 15.43 60.029 14.74 61.829C14.57 62.259 14.49 62.689 14.49 63.119C14.49 63.469 14.62 63.899 14.87 64.419C17.11 64.419 18.49 63.469 19 61.579C19.09 61.319 19.13 61.019 19.13 60.669C19.13 60.499 19.05 59.979 18.88 59.119ZM82.26 78.999V74.229C82.26 60.199 78.69 48.709 71.55 39.759C65.35 32.009 59.71 28.137 54.64 28.137C54.64 28.137 54.12 28.051 53.09 27.879C52.92 27.965 52.79 28.051 52.7 28.137C51.58 28.137 51.02 28.611 51.02 29.557C51.02 29.902 51.28 30.332 51.8 30.848C56.44 31.279 61.52 34.589 67.03 40.789C74 48.879 77.49 60.589 77.49 75.909V76.679C77.49 80.469 78.3 82.359 79.94 82.359C81.32 82.359 82.09 81.239 82.26 78.999Z" fill="black"/>
</svg>
