<svg width="100" height="100" viewBox="0 0 100 100" fill="none" xmlns="http://www.w3.org/2000/svg">
<path d="M22.011 87.98C21.931 86.95 21.881 84.93 21.881 81.91C21.881 71.07 25.241 63.02 31.951 57.77C33.931 56.14 36.341 54.63 39.181 53.25C35.831 52.22 33.5509 49.68 32.3409 45.64C32.0009 44.34 31.821 43.01 31.821 41.63C31.821 35.87 34.791 31.78 40.731 29.369C39.181 26.787 38.4109 24.334 38.4109 22.011C38.4109 18.138 40.3009 15.254 44.0909 13.361C45.8109 12.5 47.661 12.07 49.641 12.07C53.941 12.07 57.131 13.748 59.191 17.105C60.141 18.568 60.611 20.203 60.611 22.011C60.611 24.507 59.881 26.959 58.421 29.369C61.601 30.66 63.881 32.38 65.261 34.53C66.641 36.86 67.331 39.22 67.331 41.63C67.331 46.11 65.781 49.51 62.681 51.83C61.901 52.52 61.041 52.99 60.101 53.25C68.021 57.3 73.141 62.59 75.461 69.13C76.671 72.75 77.271 77.01 77.271 81.91C77.271 84.93 77.221 86.95 77.141 87.98H22.011Z" fill="black"/>
</svg>
