<svg width="100" height="100" viewBox="0 0 100 100" fill="none" xmlns="http://www.w3.org/2000/svg">
<path d="M28.361 78.55C28.361 79.93 29.351 80.62 31.331 80.62L40.241 79.97C40.231 79.97 42.821 79.85 47.981 79.59H49.921L65.021 80.36L68.121 80.62C70.101 80.62 71.091 79.93 71.091 78.55C71.091 76.06 65.321 74.68 53.791 74.42H49.791C40.061 74.42 33.561 75.15 30.291 76.62C29.001 77.13 28.361 77.78 28.361 78.55ZM12.221 24.59C10.591 24.59 9.551 25.408 9.121 27.043C9.041 27.302 8.991 27.56 8.991 27.818C8.991 29.453 9.811 30.486 11.451 30.916C11.701 31.002 11.961 31.045 12.221 31.045C14.291 31.045 15.321 29.97 15.321 27.818C15.321 25.666 14.291 24.59 12.221 24.59ZM29.131 16.457C26.891 16.457 25.781 17.533 25.781 19.685C25.781 21.836 26.891 22.912 29.131 22.912C31.201 22.912 32.231 21.836 32.231 19.685C32.231 17.533 31.201 16.457 29.131 16.457ZM70.321 16.457C68.851 16.457 67.861 17.189 67.351 18.652L67.221 19.685C67.221 21.836 68.251 22.912 70.321 22.912C72.471 22.912 73.541 21.836 73.541 19.685C73.541 17.533 72.471 16.457 70.321 16.457ZM87.101 24.59C85.031 24.59 84.001 25.666 84.001 27.818C84.001 29.97 85.031 31.045 87.101 31.045C89.251 31.045 90.331 29.97 90.331 27.818C90.331 26.183 89.511 25.15 87.871 24.72C87.611 24.633 87.361 24.59 87.101 24.59ZM77.801 86.3C77.801 88.71 73.371 90.39 64.511 91.34L51.981 92.11H49.661C39.161 92.11 31.161 91.21 25.651 89.4C22.981 88.62 21.641 87.59 21.641 86.3C21.641 83.8 22.331 80.96 23.711 77.78C24.661 75.89 25.131 74.55 25.131 73.78C25.131 72.14 23.151 68.96 19.191 64.22C17.041 61.73 15.791 60.01 15.451 59.06C15.451 58.54 15.191 57.38 14.671 55.57L12.991 49.12C11.881 44.9 11.141 40.43 10.801 35.69C6.84099 34.058 4.86099 31.433 4.86099 27.818C4.86099 24.72 6.281 22.525 9.121 21.234C10.071 20.804 11.101 20.588 12.221 20.588C15.061 20.588 17.171 21.879 18.551 24.461C19.151 25.58 19.451 26.699 19.451 27.818L18.801 32.724C18.801 36.6 21.561 41.33 27.071 46.92C27.501 43.4 27.711 39.7 27.711 35.82C27.711 30.056 26.681 26.398 24.611 24.849C24.441 24.677 24.271 24.547 24.101 24.461C22.551 23.515 21.771 21.836 21.771 19.426C21.771 16.242 23.241 14.047 26.161 12.842C27.111 12.412 28.101 12.197 29.131 12.197C32.141 12.197 34.301 13.574 35.591 16.328C36.101 17.275 36.361 18.308 36.361 19.426L35.461 24.978C35.461 29.798 37.831 37.16 42.561 47.05C44.371 38.96 45.271 32.767 45.271 28.463C45.271 24.849 44.621 21.535 43.331 18.523C42.821 17.404 42.561 16.543 42.561 15.941C42.561 12.756 43.981 10.562 46.821 9.35699C47.771 8.92599 48.761 8.711 49.791 8.711C52.801 8.711 54.911 10.131 56.111 12.971C56.541 13.918 56.761 14.908 56.761 15.941C56.761 16.113 56.031 18.394 54.571 22.783C54.221 23.902 54.051 25.795 54.051 28.463C54.051 32.767 54.951 38.96 56.761 47.05C61.411 37.24 63.731 29.884 63.731 24.978L62.961 19.556V19.426C62.961 16.242 64.421 14.047 67.351 12.842C68.291 12.412 69.281 12.197 70.321 12.197C73.331 12.197 75.481 13.574 76.771 16.328C77.291 17.275 77.541 18.308 77.541 19.426C77.541 21.836 76.771 23.558 75.221 24.59C72.811 26.14 71.611 29.927 71.611 35.95C71.611 39.74 71.821 43.4 72.251 46.92C77.761 41.33 80.511 36.6 80.511 32.724L79.871 27.818C79.871 24.806 81.251 22.654 84.001 21.363C84.951 20.847 85.981 20.588 87.101 20.588C90.201 20.588 92.391 21.965 93.681 24.72L94.461 27.172V27.818C94.461 31.261 92.481 33.886 88.521 35.69C88.001 41.63 86.541 48.9 84.131 57.51C83.961 58.2 83.871 58.72 83.871 59.06C83.871 59.66 83.231 60.65 81.931 62.03L80.391 63.97C76.251 68.7 74.191 71.97 74.191 73.78C74.191 74.29 75.221 76.96 77.291 81.78C77.631 83.5 77.801 85.01 77.801 86.3ZM49.791 12.455C48.151 12.455 47.121 13.273 46.691 14.908C46.601 15.166 46.561 15.424 46.561 15.683C46.561 17.318 47.381 18.351 49.011 18.781C49.271 18.867 49.531 18.91 49.791 18.91C51.851 18.91 52.891 17.834 52.891 15.683C52.891 14.133 52.161 13.101 50.691 12.584C50.431 12.498 50.131 12.455 49.791 12.455ZM73.031 62.8C73.031 60.05 65.281 58.67 49.791 58.67C34.211 58.67 26.421 60.09 26.421 62.93C26.421 64.14 27.541 64.74 29.781 64.74C32.361 64.74 35.591 64.53 39.461 64.1L47.851 63.84H49.921C52.331 63.84 56.891 64.05 63.601 64.48L69.931 64.74C71.991 64.74 73.031 64.1 73.031 62.8Z" fill="black"/>
</svg>
