<svg width="100" height="100" viewBox="0 0 100 100" fill="none" xmlns="http://www.w3.org/2000/svg">
<path d="M46.83 62.35H52.51C53.8 62.35 55.35 62.4 57.16 62.48L69.94 63.26H70.07C71.62 63.26 72.39 63.04 72.39 62.61V62.09C72.39 59.51 66.67 57.83 55.22 57.06C53.15 56.89 51.35 56.8 49.8 56.8C41.36 56.8 34.86 57.66 30.3 59.38C28.24 60.16 27.21 61.06 27.21 62.09V62.61C27.21 63.04 27.98 63.26 29.53 63.26L46.83 62.35ZM70.71 68.16C63.91 67.3 56.94 66.87 49.8 66.87C42.31 66.87 35.34 67.3 28.88 68.16C29.92 69.02 30.43 70.7 30.43 73.2C30.43 74.83 30.17 75.82 29.66 76.17C34.82 75.22 41.54 74.75 49.8 74.75C58.06 74.75 64.77 75.22 69.94 76.17C69.42 75.82 69.16 74.83 69.16 73.2C69.16 70.7 69.68 69.02 70.71 68.16ZM49.8 79.26C45.41 79.26 40.5 79.48 35.08 79.91C30.86 80.25 28.75 81.24 28.75 82.88C28.75 85.03 35.77 86.11 49.8 86.11C63.83 86.11 70.84 85.03 70.84 82.88C70.84 82.19 70.28 81.55 69.16 80.94C65.89 79.82 59.44 79.26 49.8 79.26ZM49.8 11.74C47.65 11.74 46.57 12.78 46.57 14.84C46.57 17.08 47.65 18.2 49.8 18.2C51.86 18.2 52.9 17.08 52.9 14.84C52.9 12.78 51.86 11.74 49.8 11.74ZM49.8 8C52.9 8 55.05 9.41999 56.25 12.26L56.9 14.84V15.23C56.9 15.75 56.55 16.82 55.87 18.46C54.66 21.99 54.06 25.04 54.06 27.62C54.06 31.84 55 38.08 56.9 46.34C61.55 36.53 63.87 29.13 63.87 24.14L63.09 18.59C63.09 15.57 64.43 13.42 67.1 12.13C68.04 11.62 69.08 11.36 70.2 11.36C73.29 11.36 75.49 12.73 76.78 15.49C77.3 16.52 77.55 17.55 77.55 18.59C77.55 20.83 76.78 22.59 75.23 23.88C72.91 26.2 71.7 29.99 71.62 35.24C71.62 37.48 71.83 41.09 72.26 46.09C77.86 40.32 80.65 35.63 80.65 32.01L80.01 26.98C80.01 24.14 81.3 22.03 83.88 20.65C84.91 20.05 85.99 19.75 87.11 19.75C90.03 19.75 92.23 21.08 93.69 23.75L94.47 26.2V26.98C94.47 30.51 92.49 33.18 88.53 34.98C88.36 38.68 86.94 45.96 84.27 56.8C84.09 57.32 83.97 57.79 83.88 58.22C83.88 59.43 82.5 61.49 79.75 64.42C76.05 68.12 74.2 71 74.2 73.07C74.2 74.01 75.23 76.55 77.3 80.68C77.64 81.46 77.81 82.62 77.81 84.17V85.07C77.73 85.33 77.68 85.63 77.68 85.98V86.11L77.81 86.24C77.81 89.33 69.51 91.06 52.9 91.4H49.67L44.25 91.27H44.12C36.03 91.01 29.87 90.32 25.66 89.2C22.99 88.43 21.65 87.44 21.65 86.24C21.74 86.15 21.74 85.63 21.65 84.69C21.57 84.51 21.57 84.34 21.65 84.17C21.65 82.19 22.3 79.91 23.59 77.33C24.62 75.26 25.14 73.84 25.14 73.07C25.14 71.69 24.41 70.06 22.94 68.16L16.62 60.93C15.93 59.99 15.59 59.08 15.59 58.22C12.92 47.29 11.41 40.19 11.07 36.92C10.98 36.23 10.94 35.59 10.94 34.98C6.98 33.18 5 30.51 5 26.98C5 24.14 6.29001 22.03 8.87001 20.65C9.99001 20.05 11.11 19.75 12.23 19.75C15.24 19.75 17.39 21.13 18.68 23.88C19.2 24.83 19.46 25.86 19.46 26.98L18.81 32.01C18.81 35.8 21.57 40.49 27.08 46.09C27.51 42.3 27.72 38.68 27.72 35.24C27.72 30.51 27.16 27.37 26.04 25.82C25.61 25.21 24.97 24.53 24.11 23.75C22.56 22.72 21.78 21 21.78 18.59C21.78 15.57 23.2 13.38 26.04 12C26.99 11.57 28.02 11.36 29.14 11.36C32.15 11.36 34.31 12.73 35.6 15.49C36.11 16.44 36.37 17.47 36.37 18.59L35.6 24.01V24.14C35.6 29.04 37.92 36.45 42.57 46.34C44.38 38.51 45.28 32.27 45.28 27.62C45.28 24.18 44.63 20.91 43.34 17.81C42.83 16.61 42.57 15.75 42.57 15.23C42.57 12.22 43.94 10.07 46.7 8.78C47.65 8.26 48.68 8 49.8 8ZM87.11 23.88C85.73 23.88 84.74 24.57 84.14 25.95C84.05 26.29 84.01 26.63 84.01 26.98C84.01 28.7 84.78 29.78 86.33 30.21C86.59 30.29 86.85 30.34 87.11 30.34C89.26 30.34 90.33 29.22 90.33 26.98C90.33 24.91 89.26 23.88 87.11 23.88ZM70.2 15.62C68.73 15.62 67.74 16.35 67.23 17.81L67.1 18.85C67.1 20.39 67.83 21.43 69.29 21.94C69.55 22.03 69.85 22.07 70.2 22.07C72.43 22.07 73.55 21 73.55 18.85C73.55 16.69 72.43 15.62 70.2 15.62ZM29.14 15.62C26.99 15.62 25.91 16.69 25.91 18.85C25.91 21 26.99 22.07 29.14 22.07C31.21 22.07 32.24 21 32.24 18.85C32.24 16.69 31.21 15.62 29.14 15.62ZM12.23 23.88C10.08 23.88 9 24.91 9 26.98C9 29.22 10.08 30.34 12.23 30.34C14.3 30.34 15.33 29.22 15.33 26.98C15.33 25.52 14.6 24.53 13.13 24.01C12.87 23.92 12.57 23.88 12.23 23.88ZM49.8 32.14C48.59 39.72 47.04 45.18 45.15 48.54L43.21 51.64V51.77C42.96 51.51 41.84 50.22 39.86 47.89C37.36 44.97 34.74 39.42 31.98 31.24C32.15 32.44 32.24 33.69 32.24 34.98C32.24 39.03 31.51 45.27 30.05 53.7C25.4 50.95 20.88 46.56 16.49 40.53C17.95 47.94 19.07 52.8 19.85 55.12C20.36 56.84 21.01 57.83 21.78 58.09C28.84 54.05 38.18 52.02 49.8 52.02C61.5 52.02 70.84 54.05 77.81 58.09C79.36 57.58 81.08 51.72 82.98 40.53C78.5 46.73 74.03 51.12 69.55 53.7C68.09 46.21 67.36 40.32 67.36 36.02C67.36 34.9 67.44 33.3 67.61 31.24C65.89 36.4 63.91 41.01 61.67 45.05C60.47 46.86 59.14 48.58 57.67 50.22C56.98 50.91 56.55 51.42 56.38 51.77L53.54 46.73C53.46 46.39 53.33 46.04 53.15 45.7C52.47 43.8 51.35 39.29 49.8 32.14Z" fill="black"/>
</svg>
