<svg width="100" height="100" viewBox="0 0 100 100" fill="none" xmlns="http://www.w3.org/2000/svg">
<path d="M49.7 56.51C43.68 56.51 38.99 56.26 35.63 55.74C36.23 56.94 36.53 57.98 36.53 58.84C36.53 60.13 36.28 61.2 35.76 62.06C38.25 61.29 42.9 60.9 49.7 60.9C56.5 60.9 61.15 61.29 63.64 62.06C63.13 61.2 62.87 60.13 62.87 58.84C62.87 57.8 63.13 56.77 63.64 55.74C59.6 56.26 54.95 56.51 49.7 56.51ZM49.7 9.78C47.89 9.78 46.65 10.6 45.96 12.23C45.79 12.66 45.7 13.09 45.7 13.52C45.7 15.42 46.65 16.66 48.54 17.27C48.88 17.35 49.27 17.4 49.7 17.4C51.68 17.4 52.97 16.49 53.57 14.69C53.66 14.34 53.7 13.95 53.7 13.52C53.7 11.8 52.84 10.64 51.12 10.04C50.61 9.87001 50.13 9.78 49.7 9.78ZM49.7 64.65C46.43 64.65 42.21 64.95 37.05 65.55C35.59 65.72 34.73 66.54 34.47 68C34.47 69.04 36.83 69.68 41.57 69.94C41.14 69.85 41.31 69.81 42.08 69.81H49.7C59.77 69.81 64.81 69.21 64.81 68C64.81 66.02 62.31 64.95 57.32 64.78H53.57C52.46 64.78 51.51 64.73 50.73 64.65H49.7ZM49.57 52.77C59.21 52.77 65.11 51.87 67.26 50.06C68.72 48.94 69.8 45.97 70.49 41.15C70.06 36.85 67.26 32.72 62.1 28.76C57.28 24.97 53.06 22.86 49.44 22.43C46.09 22.86 42 24.97 37.18 28.76C32.1 32.72 29.35 36.85 28.92 41.15C29.52 45.63 30.47 48.47 31.76 49.67C32.1 50.02 32.49 50.32 32.92 50.57C35.07 52.04 40.62 52.77 49.57 52.77ZM47.38 46.44V40.76H42.99V35.73H47.38V30.18H52.03V35.73H56.41V40.76H52.03V46.44H47.38ZM49.44 72.78C48.67 72.78 46.39 74.29 42.6 77.3C39.93 79.11 35.63 80.18 29.69 80.53C25.39 80.53 21.95 80.74 19.36 81.17C16.61 81.77 15.23 82.94 15.23 84.66C15.49 86.38 16.39 87.24 17.94 87.24L24.79 86.21C29.26 86.21 33.95 85.6 38.86 84.4C44.45 82.94 48.07 80.61 49.7 77.43C52.03 81.99 58.05 84.74 67.78 85.69C67.78 85.69 68.89 85.86 71.13 86.21H74.49L81.46 87.24C83.01 87.24 83.91 86.38 84.17 84.66C84.17 82.94 82.79 81.77 80.04 81.17L66.23 80.14C61.84 79.79 57.62 78.07 53.57 74.97C51.77 73.51 50.39 72.78 49.44 72.78ZM49.7 84.01C46.35 87.37 41.27 89.43 34.47 90.21C31.71 90.47 26.89 91.07 20.01 92.02C18.2 92.36 17.17 93.18 16.91 94.47C15.28 94.04 12.87 91.37 9.67999 86.46C8.90999 85.26 8.35 84.44 8 84.01C10.84 78.59 14.37 75.88 18.59 75.88L26.21 76.27C29.73 76.27 33.87 75.45 38.6 73.81C32.49 73.04 29.43 71.19 29.43 68.26L32.02 58.45V58.19C26.85 52.51 24.27 47.18 24.27 42.18C24.27 36.5 27.07 31.34 32.66 26.69C37.57 22.56 41.18 20.37 43.5 20.11C41.61 17.78 40.66 15.37 40.66 12.88C40.66 8.92 42.64 6.42 46.6 5.39C47.55 5.13 48.58 5 49.7 5C53.92 5 56.67 6.59 57.96 9.78L58.61 12.49V12.88C58.61 15.55 57.71 17.96 55.9 20.11C58.22 20.37 61.88 22.6 66.87 26.82C72.38 31.38 75.13 36.5 75.13 42.18C75.13 47 72.55 52.34 67.39 58.19C67.39 59.4 67.82 61.12 68.68 63.36C69.54 66.11 69.97 67.75 69.97 68.26C69.97 71.19 66.91 73.04 60.8 73.81C65.45 75.45 69.58 76.27 73.2 76.27L80.81 75.88C85.03 75.88 88.56 78.59 91.4 84.01L87.01 90.73C85.55 92.62 84.04 93.87 82.49 94.47C82.15 92.75 79.65 91.67 75.01 91.24C75.61 91.24 74.32 91.11 71.13 90.85C60.37 89.82 53.23 87.54 49.7 84.01Z" fill="black"/>
</svg>
