<svg width="100" height="100" viewBox="0 0 100 100" fill="none" xmlns="http://www.w3.org/2000/svg">
<path d="M53.471 60.419C53.471 61.959 52.401 62.739 50.241 62.739C47.841 62.739 46.631 61.959 46.631 60.419C46.631 53.269 44.261 47.459 39.531 42.989C35.313 39.199 31.225 37.309 27.266 37.309C21.414 37.309 17.756 39.629 16.293 44.279L15.776 47.759V48.019C15.776 51.459 18.315 56.239 23.393 62.349C24.77 63.899 25.932 65.109 26.879 65.969C28.256 67.089 30.537 67.649 33.721 67.649C37.078 67.649 42.501 66.999 49.991 65.709C57.561 66.999 63.031 67.649 66.381 67.649C69.651 67.649 71.931 67.089 73.221 65.969C76.841 62.779 79.851 58.909 82.261 54.349C83.641 51.769 84.331 49.659 84.331 48.019C84.331 42.599 81.871 39.199 76.971 37.819C75.681 37.479 74.301 37.309 72.841 37.309C68.881 37.309 64.831 39.239 60.701 43.119C55.881 47.419 53.471 53.189 53.471 60.419ZM81.491 48.019C81.491 51.459 79.121 55.509 74.391 60.159L71.031 62.999L69.741 63.769C68.101 64.029 66.381 64.159 64.581 64.159C59.241 64.159 56.571 63.079 56.571 60.929C56.741 54.299 58.721 49.139 62.511 45.439C65.781 42.169 69.141 40.529 72.581 40.529C76.971 40.529 79.771 42.129 80.971 45.309L81.491 48.019ZM69.221 80.809C69.221 78.579 62.901 77.459 50.241 77.459C46.801 77.459 43.751 77.589 41.08 77.839L37.981 78.099C33.334 78.699 31.01 79.569 31.01 80.679C31.01 81.979 32.172 82.619 34.496 82.619L50.121 81.329L65.611 82.619C68.021 82.619 69.221 82.019 69.221 80.809ZM76.451 83.909C76.281 89.759 67.501 92.689 50.121 92.689C32.904 92.689 24.168 89.759 23.91 83.909C23.824 78.399 23.006 73.499 21.457 69.189C20.51 66.869 18.703 63.899 16.035 60.289C12.678 55.729 11 51.679 11 48.149C11 42.639 13.366 38.379 18.1 35.369C20.768 33.648 23.737 32.787 27.008 32.787C31.483 32.787 35.744 34.423 39.789 37.689C39.789 33.734 40.176 31.023 40.951 29.56C41.553 27.924 43.531 25.945 46.891 23.621V20.652L41.596 17.424V12.777H46.371L47.921 8H52.311L53.991 12.777H58.641V17.424L53.471 20.652V23.621C56.741 26.031 58.771 28.097 59.541 29.818L60.441 33.562C60.531 34.595 60.621 35.972 60.701 37.689C64.751 34.423 68.921 32.787 73.221 32.787C78.991 32.787 83.471 34.982 86.651 39.369C88.461 41.949 89.361 44.879 89.361 48.149C89.361 51.679 87.681 55.769 84.331 60.419L81.361 64.549C78.171 69.369 76.541 75.819 76.451 83.909ZM18.746 48.019C18.746 44.409 20.553 42.079 24.168 41.049C25.201 40.709 26.276 40.529 27.395 40.529C31.01 40.529 34.453 42.169 37.723 45.439C41.424 49.229 43.361 54.389 43.531 60.929C43.621 62.829 41.639 63.899 37.594 64.159H35.658C33.936 64.159 32.172 64.029 30.365 63.769C27.524 62.399 24.684 59.679 21.844 55.639C19.778 52.629 18.746 50.089 18.746 48.019Z" fill="black"/>
</svg>
