<svg width="100" height="100" viewBox="0 0 100 100" fill="none" xmlns="http://www.w3.org/2000/svg">
<path d="M20.29 57.83C21.5 57.83 22.1 58.65 22.1 60.28C22.1 62.44 21.03 63.51 18.87 63.51C18.01 63.51 17.58 62.82 17.58 61.45C17.58 59.04 18.49 57.83 20.29 57.83ZM29.59 42.08C28.38 42.08 27.78 41.35 27.78 39.89C27.78 37.56 29.16 35.67 31.91 34.21C33.12 33.6 34.24 33.3 35.27 33.3C37.08 33.3 38.07 33.91 38.24 35.11C38.24 37.09 36.69 38.98 33.59 40.79C32.04 41.65 30.71 42.08 29.59 42.08ZM30.62 17.81C30.97 19.02 31.14 19.83 31.14 20.26C31.14 20.52 31.01 21.21 30.75 22.33C32.13 22.33 34.02 21.64 36.43 20.26C34.11 19.06 32.17 18.24 30.62 17.81ZM15.26 62.22C15.78 64.29 17.15 65.79 19.39 66.74C20.25 67.08 21.07 67.26 21.84 67.26H22.1C22.27 67.26 23.22 66.74 24.94 65.71C25.46 65.36 25.89 65.19 26.23 65.19H26.75C27.18 65.19 27.39 65.45 27.39 65.97L26.62 68.42C26.62 69.19 27.22 69.58 28.43 69.58C28.6 69.58 29.68 68.07 31.65 65.06C35.44 59.21 40.82 54.78 47.79 51.76C48.48 47.12 50.2 43.03 52.96 39.5C53.64 38.55 54.33 38.08 55.02 38.08C55.8 38.08 56.18 38.64 56.18 39.76C56.18 40.02 55.41 42.47 53.86 47.12C53.26 49.1 52.96 50.56 52.96 51.51C52.96 51.76 53.04 52.32 53.21 53.18C53.21 59.3 50.63 65.71 45.47 72.42C42.03 77.07 40.13 80.77 39.79 83.52H82.39C82.74 79.56 82.91 76.64 82.91 74.74C82.91 57.01 77.36 42.86 66.25 32.27C62.9 29.17 60.19 27.62 58.12 27.62H50.37C49.69 27.28 49 25.56 48.31 22.46C47.79 19.96 47.15 18.41 46.37 17.81C45.34 20.91 42.15 23.32 36.82 25.04C33.98 25.9 32 26.76 30.88 27.62C29.93 30.64 27.14 36.75 22.49 45.95C17.93 55.08 15.52 60.5 15.26 62.22ZM87.55 88.3H33.46C33.81 82.36 36.04 76.68 40.18 71.26C43.36 66.96 45.25 64.33 45.86 63.38C47.06 61.49 47.79 59.21 48.05 56.54C42.46 58.95 38.11 62.39 35.01 66.87L33.2 69.84C31.91 71.9 31.1 73.07 30.75 73.32C30.23 73.75 29.68 73.97 29.07 73.97C26.4 73.97 24.6 73.07 23.65 71.26C23.48 71 23.39 70.7 23.39 70.35C22.53 70.79 21.67 71 20.81 71C16.68 71 13.41 68.42 11 63.25C11.69 59.47 15.3 50.73 21.84 37.05C22.53 35.76 23.05 34.72 23.39 33.95C25.97 28.18 27.27 23.84 27.27 20.91C27.27 20.48 27.01 18.07 26.49 13.68H27.52C32.17 13.68 36.6 15.14 40.82 18.07C43.14 14.02 45.08 12 46.63 12C49.38 13.46 51.28 15.53 52.31 18.2L53.73 22.46C54.59 22.29 55.32 22.2 55.93 22.2C62.81 22.2 69.61 26.59 76.32 35.37C84.16 45.61 88.07 59.64 88.07 77.46C88.07 81.5 87.9 85.12 87.55 88.3Z" fill="black"/>
</svg>
