<svg width="100" height="100" viewBox="0 0 100 100" fill="none" xmlns="http://www.w3.org/2000/svg">
<path d="M72.74 82.75C72.74 73.71 70.29 66.95 65.38 62.48C63.75 60.93 61.72 59.46 59.31 58.09C55.96 56.11 54.28 54.3 54.28 52.67C54.28 51.8 55.14 50.86 56.86 49.83C59.53 48.36 61.12 46.64 61.64 44.66C61.81 43.89 61.9 42.94 61.9 41.82C61.9 37.86 59.87 34.76 55.83 32.53L53.51 30.85C53.07 30.42 52.86 29.94 52.86 29.43C52.86 27.96 53.38 26.5 54.41 25.04C55.1 24.09 55.44 22.97 55.44 21.68C55.44 19.44 54.24 17.81 51.83 16.78C51.05 16.52 50.28 16.39 49.5 16.39C47.09 16.39 45.37 17.46 44.34 19.62C43.99 20.3 43.82 20.99 43.82 21.68C43.82 22.46 44.38 23.92 45.5 26.07C46.19 27.28 46.49 28.39 46.4 29.43C46.4 30.46 45.41 31.49 43.44 32.53C39.48 34.85 37.5 37.95 37.5 41.82C37.5 45.18 39.18 47.85 42.53 49.83C44.17 50.94 44.98 51.89 44.98 52.67C44.98 54.3 43.31 56.11 39.95 58.09C33.75 61.87 29.79 66.48 28.07 71.9C27.13 74.91 26.65 78.53 26.65 82.75H72.74ZM22.13 87.91C22.05 86.88 22 84.9 22 81.97C22 71.38 25.1 63.47 31.3 58.22C33.37 56.5 35.99 54.82 39.18 53.18C35.9 52.15 33.71 49.65 32.59 45.69C32.16 44.4 31.95 43.07 31.95 41.69C31.95 35.93 34.87 31.79 40.72 29.3C39.35 26.8 38.66 24.35 38.66 21.94C38.66 17.98 40.6 15.05 44.47 13.16C46.1 12.39 47.87 12 49.76 12C54.15 12 57.38 13.68 59.44 17.03C60.39 18.5 60.86 20.13 60.86 21.94C60.86 24.26 60.09 26.72 58.54 29.3C64.48 31.71 67.45 35.84 67.45 41.69C67.45 46.25 65.77 49.7 62.41 52.02C61.72 52.54 60.95 52.92 60.09 53.18C67.84 57.14 72.87 62.18 75.19 68.29C76.66 72.07 77.39 76.63 77.39 81.97C77.39 84.81 77.35 86.79 77.26 87.91H22.13Z" fill="black"/>
</svg>
